{
	"asset":{
		"version":"2.0",
		"generator":"Created using the official Cinema 4D glTF Exporter 1.000x284978"
	},
	"scenes":[{
		"nodes":[0]
	}],
	"nodes":[{
		"name":"logo",
		"children":[1,
		2]
	},
	{
		"name":"Cube.1",
		"mesh":0,
		"translation":[14.684586524963379,
		4.21195650100708,
		0.15310527384281159],
		"rotation":[0.0,
		-1.2246468525851679e-16,
		0.0,
		1.0],
		"scale":[1.0,
		1.0,
		1.0]
	},
	{
		"name":"Cube",
		"mesh":1,
		"translation":[-0.3154130280017853,
		-23.884502410888673,
		0.14412881433963777],
		"rotation":[0.0,
		-1.0,
		0.0,
		-6.123234262925839e-17],
		"scale":[1.0,
		1.0,
		1.0]
	}],
	"meshes":[{
		"name":"Cube.1",
		"primitives":[{
			"indices":0,
			"attributes":{
				"POSITION":1,
				"NORMAL":2,
				"TEXCOORD_0":3
			},
			"material":0
		}]
	},
	{
		"name":"Cube",
		"primitives":[{
			"indices":6,
			"attributes":{
				"POSITION":7,
				"NORMAL":8,
				"TEXCOORD_0":9
			},
			"material":0
		}]
	}],
	"accessors":[{
		"bufferView":0,
		"type":"SCALAR",
		"componentType":5123,
		"count":12096,
		"min":[0],
		"byteOffset":0,
		"max":[2200]
	},
	{
		"bufferView":1,
		"type":"VEC3",
		"componentType":5126,
		"count":2201,
		"min":[-27.339887619018556,
		-13.70474624633789,
		-12.098530769348145],
		"byteOffset":0,
		"max":[21.403331756591798,
		34.34430694580078,
		12.264548301696778]
	},
	{
		"bufferView":1,
		"type":"VEC3",
		"componentType":5126,
		"count":2201,
		"min":[-1.0,
		-1.0,
		-1.0],
		"byteOffset":12,
		"max":[1.0,
		1.0,
		1.0]
	},
	{
		"bufferView":1,
		"type":"VEC2",
		"componentType":5126,
		"count":2201,
		"min":[0.0,
		0.0],
		"byteOffset":24,
		"max":[1.0,
		1.0]
	},
	{
		"bufferView":2,
		"type":"SCALAR",
		"componentType":5126,
		"count":51,
		"min":[0.0],
		"byteOffset":0,
		"max":[1.6666666269302369]
	},
	{
		"bufferView":2,
		"type":"VEC4",
		"componentType":5126,
		"count":51,
		"min":[0.0,
		-1.0,
		0.0,
		-1.0],
		"byteOffset":204,
		"max":[0.0,
		0.0,
		0.0,
		1.0]
	},
	{
		"bufferView":3,
		"type":"SCALAR",
		"componentType":5123,
		"count":5184,
		"min":[0],
		"byteOffset":0,
		"max":[1013]
	},
	{
		"bufferView":4,
		"type":"VEC3",
		"componentType":5126,
		"count":1014,
		"min":[-36.4033317565918,
		-12.068599700927735,
		-12.089553833007813],
		"byteOffset":0,
		"max":[36.4033317565918,
		11.801204681396485,
		12.27352523803711]
	},
	{
		"bufferView":4,
		"type":"VEC3",
		"componentType":5126,
		"count":1014,
		"min":[-1.0,
		-1.0,
		-1.0],
		"byteOffset":12,
		"max":[1.0,
		1.0,
		1.0]
	},
	{
		"bufferView":4,
		"type":"VEC2",
		"componentType":5126,
		"count":1014,
		"min":[0.31875157356262209,
		0.43967974185943606],
		"byteOffset":24,
		"max":[0.6812484264373779,
		0.560320258140564]
	},
	{
		"bufferView":5,
		"type":"SCALAR",
		"componentType":5126,
		"count":51,
		"min":[0.0],
		"byteOffset":0,
		"max":[1.6666666269302369]
	},
	{
		"bufferView":5,
		"type":"VEC4",
		"componentType":5126,
		"count":51,
		"min":[0.0,
		-1.0,
		0.0,
		-1.0],
		"byteOffset":204,
		"max":[0.0,
		0.0,
		0.0,
		-6.123234262925839e-17]
	}],
	"bufferViews":[{
		"buffer":0,
		"byteOffset":0,
		"byteLength":24192,
		"target":34963
	},
	{
		"buffer":0,
		"byteOffset":24192,
		"byteLength":70432,
		"target":34962,
		"byteStride":32
	},
	{
		"buffer":1,
		"byteOffset":0,
		"byteLength":1020
	},
	{
		"buffer":2,
		"byteOffset":0,
		"byteLength":10368,
		"target":34963
	},
	{
		"buffer":2,
		"byteOffset":10368,
		"byteLength":32448,
		"target":34962,
		"byteStride":32
	},
	{
		"buffer":3,
		"byteOffset":0,
		"byteLength":1020
	}],
	"buffers":[{
		"uri":"data:application/octet-stream;base64,",
		"byteLength":94624
	},
	{
		"uri":"data:application/octet-stream;base64,",
		"byteLength":1020
	},
	{
		"uri":"data:application/octet-stream;base64,",
		"byteLength":42816
	},
	{
		"uri":"data:application/octet-stream;base64,",
		"byteLength":1020
	}],
	"materials":[{
		"pbrMetallicRoughness":{
			"baseColorFactor":[0.0,
			0.0,
			0.0,
			1.0],
			"roughnessFactor":0.5,
			"metallicFactor":0.0
		},
		"emissiveFactor":[0.0088,
		0.0088,
		0.0088],
		"alphaMode":"OPAQUE",
		"doubleSided":false,
		"name":"Mat"
	}],
	"animations":[{
		"samplers":[{
			"input":4,
			"interpolation":"LINEAR",
			"output":5
		},
		{
			"input":10,
			"interpolation":"LINEAR",
			"output":11
		}],
		"channels":[{
			"sampler":0,
			"target":{
				"node":1,
				"path":"rotation"
			}
		},
		{
			"sampler":1,
			"target":{
				"node":2,
				"path":"rotation"
			}
		}]
	}]
}