{
	"asset":{
		"version":"2.0",
		"generator":"Created using the official Cinema 4D glTF Exporter 1.000x284978"
	},
	"scenes":[{
		"nodes":[0]
	}],
	"nodes":[{
		"name":"Null",
		"children":[1]
	},
	{
		"name":"Subdivision Surface.1",
		"mesh":0
	}],
	"meshes":[{
		"name":"Subdivision Surface.1",
		"primitives":[{
			"attributes":{
				"POSITION":1,
				"NORMAL":2,
				"TEXCOORD_0":3
			},
			"indices":0,
			"material":0
		}]
	}],
	"accessors":[{
		"min":[0],
		"bufferView":0,
		"type":"SCALAR",
		"componentType":5123,
		"count":49728,
		"byteOffset":0,
		"max":[9941]
	},
	{
		"min":[-27.78795623779297,
		-17.315120697021486,
		-0.40123605728149416],
		"bufferView":1,
		"type":"VEC3",
		"componentType":5126,
		"count":9942,
		"byteOffset":0,
		"max":[27.78795623779297,
		17.660133361816408,
		2.1701505184173586]
	},
	{
		"min":[-1.0,
		-1.0,
		-1.0],
		"bufferView":1,
		"type":"VEC3",
		"componentType":5126,
		"count":9942,
		"byteOffset":12,
		"max":[1.0,
		1.0,
		1.0]
	},
	{
		"min":[-0.273259699344635,
		-0.0024323933757841589],
		"bufferView":1,
		"type":"VEC2",
		"componentType":5126,
		"count":9942,
		"byteOffset":24,
		"max":[1.2820355892181397,
		1.0050663948059083]
	}],
	"bufferViews":[{
		"buffer":0,
		"byteOffset":0,
		"byteLength":99456,
		"target":34963
	},
	{
		"buffer":0,
		"byteOffset":99456,
		"byteLength":318144,
		"target":34962,
		"byteStride":32
	}],
	"buffers":[{
		"uri":"data:application/octet-stream;base64,",
		"byteLength":417600
	}],
	"materials":[{
		"pbrMetallicRoughness":{
			"baseColorFactor":[1.0,
			0.85,
			0.9874999999999999,
			1.0],
			"metallicFactor":0.0,
			"roughnessFactor":0.5
		},
		"emissiveFactor":[0.0,
		0.0,
		0.0],
		"alphaMode":"OPAQUE",
		"doubleSided":false,
		"name":"Mat"
	}]
}