{
	"asset":{
		"version":"2.0",
		"generator":"Created using the official Cinema 4D glTF Exporter 1.000x284978"
	},
	"scenes":[{
		"nodes":[0,
		1]
	}],
	"nodes":[{
		"name":"Null",
		"translation":[0.07337504625320435,
		-3.7758307456970217,
		11.100554466247559],
		"rotation":[0.0,
		0.0,
		0.0,
		-1.0],
		"scale":[1.0,
		1.0,
		1.0],
		"children":[2,
		3]
	},
	{
		"name":"Subdivision Surface",
		"children":[4,
		5,
		6]
	},
	{
		"name":"logo",
		"translation":[-1.1679887771606446,
		1.5517009496688843,
		5.68540620803833],
		"rotation":[-0.007802047301083803,
		0.0,
		0.0,
		-0.9999695420265198],
		"scale":[1.0,
		1.0,
		1.0],
		"children":[7,
		8]
	},
	{
		"name":"Cylinder",
		"mesh":0,
		"translation":[-0.25678399205207827,
		0.5439334511756897,
		3.4581782817840578],
		"rotation":[0.7169321775436401,
		-0.00495830038562417,
		-0.008077947422862053,
		0.6970784664154053],
		"scale":[1.0,
		1.0,
		1.0]
	},
	{
		"name":"Cube-Mat",
		"mesh":1
	},
	{
		"name":"Cube-Mat",
		"mesh":2
	},
	{
		"name":"Cube-Mat",
		"mesh":3
	},
	{
		"name":"Cube.1",
		"mesh":4,
		"translation":[3.734884262084961,
		1.0712709426879883,
		0.004407715518027544],
		"rotation":[0.0,
		0.0,
		0.0,
		-1.0],
		"scale":[1.0,
		1.0,
		1.0]
	},
	{
		"name":"Cube",
		"mesh":5,
		"translation":[-0.08022228628396988,
		-6.074794769287109,
		0.004149294458329678],
		"rotation":[0.0,
		0.0,
		0.0,
		-1.0],
		"scale":[1.0,
		1.0,
		1.0]
	}],
	"materials":[{
		"pbrMetallicRoughness":{
			"baseColorFactor":[1.0,
			1.0,
			1.0,
			1.0],
			"metallicFactor":0.0,
			"roughnessFactor":0.5
		},
		"emissiveFactor":[0.0088,
		0.0088,
		0.0088],
		"alphaMode":"OPAQUE",
		"doubleSided":false,
		"name":"Mat.1"
	},
	{
		"pbrMetallicRoughness":{
			"baseColorFactor":[0.0,
			0.0,
			0.0,
			1.0],
			"metallicFactor":0.0,
			"roughnessFactor":0.5
		},
		"emissiveFactor":[0.0088,
		0.0088,
		0.0088],
		"alphaMode":"OPAQUE",
		"doubleSided":false,
		"name":"Mat"
	}],
	"meshes":[{
		"name":"Cylinder",
		"primitives":[{
			"attributes":{
				"POSITION":1,
				"NORMAL":2,
				"TEXCOORD_0":3
			},
			"indices":0,
			"material":0
		}]
	},
	{
		"name":"Cube-Mat",
		"primitives":[{
			"attributes":{
				"POSITION":5,
				"NORMAL":6,
				"TEXCOORD_0":7
			},
			"indices":4,
			"material":1
		}]
	},
	{
		"name":"Cube-Mat",
		"primitives":[{
			"attributes":{
				"POSITION":9,
				"NORMAL":10,
				"TEXCOORD_0":11
			},
			"indices":8,
			"material":1
		}]
	},
	{
		"name":"Cube-Mat",
		"primitives":[{
			"attributes":{
				"POSITION":13,
				"NORMAL":14,
				"TEXCOORD_0":15
			},
			"indices":12,
			"material":1
		}]
	},
	{
		"name":"Cube.1",
		"primitives":[{
			"attributes":{
				"POSITION":17,
				"NORMAL":18,
				"TEXCOORD_0":19
			},
			"indices":16,
			"material":1
		}]
	},
	{
		"name":"Cube",
		"primitives":[{
			"attributes":{
				"POSITION":23,
				"NORMAL":24,
				"TEXCOORD_0":25
			},
			"indices":22,
			"material":1
		}]
	}],
	"accessors":[{
		"bufferView":0,
		"max":[1271],
		"type":"SCALAR",
		"componentType":5123,
		"byteOffset":0,
		"count":6480,
		"min":[0]
	},
	{
		"bufferView":1,
		"max":[19.952133178710939,
		1.196183681488037,
		19.939979553222658],
		"type":"VEC3",
		"componentType":5126,
		"byteOffset":0,
		"count":1272,
		"min":[-19.952133178710939,
		-1.196183681488037,
		-19.939979553222658]
	},
	{
		"bufferView":1,
		"max":[1.0,
		1.0,
		0.9993916749954224],
		"type":"VEC3",
		"componentType":5126,
		"byteOffset":12,
		"count":1272,
		"min":[-1.0,
		-1.0,
		-0.9993916749954224]
	},
	{
		"bufferView":1,
		"max":[1.0,
		1.0],
		"type":"VEC2",
		"componentType":5126,
		"byteOffset":24,
		"count":1272,
		"min":[0.0,
		0.0]
	},
	{
		"bufferView":2,
		"max":[9096],
		"type":"SCALAR",
		"componentType":5123,
		"byteOffset":0,
		"count":51072,
		"min":[0]
	},
	{
		"bufferView":3,
		"max":[99.90459442138672,
		60.80256652832031,
		10.010952949523926],
		"type":"VEC3",
		"componentType":5126,
		"byteOffset":0,
		"count":9097,
		"min":[-99.86095428466797,
		-64.1456298828125,
		-2.2443034648895265]
	},
	{
		"bufferView":3,
		"max":[0.9999984502792358,
		1.0,
		1.0],
		"type":"VEC3",
		"componentType":5126,
		"byteOffset":12,
		"count":9097,
		"min":[-0.9999887943267822,
		-1.0,
		-1.0]
	},
	{
		"bufferView":3,
		"max":[1.0,
		1.0],
		"type":"VEC2",
		"componentType":5126,
		"byteOffset":24,
		"count":9097,
		"min":[0.0,
		0.0]
	},
	{
		"bufferView":4,
		"max":[776],
		"type":"SCALAR",
		"componentType":5123,
		"byteOffset":0,
		"count":4224,
		"min":[0]
	},
	{
		"bufferView":5,
		"max":[97.21693420410156,
		60.80256652832031,
		10.010952949523926],
		"type":"VEC3",
		"componentType":5126,
		"byteOffset":0,
		"count":777,
		"min":[-99.282470703125,
		-12.147771835327149,
		2.2443034648895265]
	},
	{
		"bufferView":5,
		"max":[0.054782718420028689,
		0.01378155779093504,
		0.0],
		"type":"VEC3",
		"componentType":5126,
		"byteOffset":12,
		"count":777,
		"min":[-0.049157679080963138,
		-1.0,
		-1.0]
	},
	{
		"bufferView":5,
		"max":[1.0,
		1.0],
		"type":"VEC2",
		"componentType":5126,
		"byteOffset":24,
		"count":777,
		"min":[0.0,
		1.0]
	},
	{
		"bufferView":6,
		"max":[4296],
		"type":"SCALAR",
		"componentType":5123,
		"byteOffset":0,
		"count":25344,
		"min":[0]
	},
	{
		"bufferView":7,
		"max":[99.82988739013672,
		64.36558532714844,
		13.40693473815918],
		"type":"VEC3",
		"componentType":5126,
		"byteOffset":0,
		"count":4297,
		"min":[-99.52989196777344,
		-12.147771835327149,
		-2.2443034648895265]
	},
	{
		"bufferView":7,
		"max":[0.8695165514945984,
		1.0,
		0.9999964237213135],
		"type":"VEC3",
		"componentType":5126,
		"byteOffset":12,
		"count":4297,
		"min":[-0.8807353377342224,
		-1.0,
		-0.7725834250450134]
	},
	{
		"bufferView":7,
		"max":[1.0,
		1.0],
		"type":"VEC2",
		"componentType":5126,
		"byteOffset":24,
		"count":4297,
		"min":[0.0,
		0.0]
	},
	{
		"bufferView":8,
		"max":[2400],
		"type":"SCALAR",
		"componentType":5123,
		"byteOffset":0,
		"count":12096,
		"min":[0]
	},
	{
		"bufferView":9,
		"max":[5.443732738494873,
		8.735145568847657,
		0.35308152437210085],
		"type":"VEC3",
		"componentType":5126,
		"byteOffset":0,
		"count":2401,
		"min":[-6.953639030456543,
		-3.485671281814575,
		-0.34830206632614138]
	},
	{
		"bufferView":9,
		"max":[1.0,
		1.0,
		1.0],
		"type":"VEC3",
		"componentType":5126,
		"byteOffset":12,
		"count":2401,
		"min":[-1.0,
		-1.0,
		-1.0]
	},
	{
		"bufferView":9,
		"max":[1.0,
		1.0],
		"type":"VEC2",
		"componentType":5126,
		"byteOffset":24,
		"count":2401,
		"min":[0.0,
		0.0]
	},
	{
		"bufferView":10,
		"max":[3.0],
		"type":"SCALAR",
		"componentType":5126,
		"byteOffset":0,
		"count":91,
		"min":[0.0]
	},
	{
		"bufferView":10,
		"max":[0.0,
		0.0,
		0.0,
		1.0],
		"type":"VEC4",
		"componentType":5126,
		"byteOffset":364,
		"count":91,
		"min":[0.0,
		-1.0,
		0.0,
		-1.0]
	},
	{
		"bufferView":11,
		"max":[1015],
		"type":"SCALAR",
		"componentType":5123,
		"byteOffset":0,
		"count":5184,
		"min":[0]
	},
	{
		"bufferView":12,
		"max":[9.25883960723877,
		3.001523733139038,
		0.3533399701118469],
		"type":"VEC3",
		"componentType":5126,
		"byteOffset":0,
		"count":1016,
		"min":[-9.25883960723877,
		-3.069532871246338,
		-0.34804365038871767]
	},
	{
		"bufferView":12,
		"max":[1.0,
		1.0,
		1.0],
		"type":"VEC3",
		"componentType":5126,
		"byteOffset":12,
		"count":1016,
		"min":[-1.0,
		-1.0,
		-1.0]
	},
	{
		"bufferView":12,
		"max":[0.6820166707038879,
		0.5603429079055786],
		"type":"VEC2",
		"componentType":5126,
		"byteOffset":24,
		"count":1016,
		"min":[0.31798332929611208,
		0.4409939646720886]
	},
	{
		"bufferView":13,
		"max":[3.0],
		"type":"SCALAR",
		"componentType":5126,
		"byteOffset":0,
		"count":91,
		"min":[0.0]
	},
	{
		"bufferView":13,
		"max":[0.0,
		0.0,
		0.0,
		-6.123234262925839e-17],
		"type":"VEC4",
		"componentType":5126,
		"byteOffset":364,
		"count":91,
		"min":[0.0,
		-1.0,
		0.0,
		-1.0]
	}],
	"bufferViews":[{
		"buffer":0,
		"byteOffset":0,
		"byteLength":12960,
		"target":34963
	},
	{
		"buffer":0,
		"byteOffset":12960,
		"byteLength":40704,
		"target":34962,
		"byteStride":32
	},
	{
		"buffer":1,
		"byteOffset":0,
		"byteLength":102144,
		"target":34963
	},
	{
		"buffer":1,
		"byteOffset":102144,
		"byteLength":291104,
		"target":34962,
		"byteStride":32
	},
	{
		"buffer":2,
		"byteOffset":0,
		"byteLength":8448,
		"target":34963
	},
	{
		"buffer":2,
		"byteOffset":8448,
		"byteLength":24864,
		"target":34962,
		"byteStride":32
	},
	{
		"buffer":3,
		"byteOffset":0,
		"byteLength":50688,
		"target":34963
	},
	{
		"buffer":3,
		"byteOffset":50688,
		"byteLength":137504,
		"target":34962,
		"byteStride":32
	},
	{
		"buffer":4,
		"byteOffset":0,
		"byteLength":24192,
		"target":34963
	},
	{
		"buffer":4,
		"byteOffset":24192,
		"byteLength":76832,
		"target":34962,
		"byteStride":32
	},
	{
		"buffer":5,
		"byteOffset":0,
		"byteLength":1820
	},
	{
		"buffer":6,
		"byteOffset":0,
		"byteLength":10368,
		"target":34963
	},
	{
		"buffer":6,
		"byteOffset":10368,
		"byteLength":32512,
		"target":34962,
		"byteStride":32
	},
	{
		"buffer":7,
		"byteOffset":0,
		"byteLength":1820
	}],
	"animations":[{
		"samplers":[{
			"input":20,
			"interpolation":"LINEAR",
			"output":21
		},
		{
			"input":26,
			"interpolation":"LINEAR",
			"output":27
		}],
		"channels":[{
			"sampler":0,
			"target":{
				"node":7,
				"path":"rotation"
			}
		},
		{
			"sampler":1,
			"target":{
				"node":8,
				"path":"rotation"
			}
		}]
	}],
	"buffers":[{
		"uri":"data:application/octet-stream;base64,",
		"byteLength":53664
	},
	{
		"uri":"data:application/octet-stream;base64,",
		"byteLength":393248
	},
	{
		"uri":"data:application/octet-stream;base64,",
		"byteLength":33312
	},
	{
		"uri":"data:application/octet-stream;base64,",
		"byteLength":188192
	},
	{
		"uri":"data:application/octet-stream;base64,",
		"byteLength":101024
	},
	{
		"uri":"data:application/octet-stream;base64,",
		"byteLength":1820
	},
	{
		"uri":"data:application/octet-stream;base64,",
		"byteLength":42880
	},
	{
		"uri":"data:application/octet-stream;base64,",
		"byteLength":1820
	}]
}