{
	"asset":{
		"version":"2.0",
		"generator":"Created using the official Cinema 4D glTF Exporter 1.000x284978"
	},
	"scenes":[{
		"nodes":[0]
	}],
	"nodes":[{
		"translation":[0.0,
		171.44235229492188,
		0.0],
		"name":"Subdivision Surface.1",
		"mesh":0,
		"rotation":[0.0,
		0.0,
		0.0,
		-1.0],
		"scale":[1.0,
		1.0,
		1.0]
	}],
	"meshes":[{
		"name":"Subdivision Surface.1",
		"primitives":[{
			"attributes":{
				"POSITION":1,
				"NORMAL":2,
				"TEXCOORD_0":3
			},
			"indices":0,
			"material":0
		}]
	}],
	"accessors":[{
		"bufferView":0,
		"type":"SCALAR",
		"componentType":5123,
		"count":49728,
		"byteOffset":0,
		"min":[0],
		"max":[9939]
	},
	{
		"bufferView":1,
		"type":"VEC3",
		"componentType":5126,
		"count":9940,
		"byteOffset":0,
		"min":[-99.98875427246094,
		-62.40980529785156,
		-1.443758249282837],
		"max":[99.98875427246094,
		63.546051025390628,
		7.80880069732666]
	},
	{
		"bufferView":1,
		"type":"VEC3",
		"componentType":5126,
		"count":9940,
		"byteOffset":12,
		"min":[-1.0,
		-1.0,
		-1.0],
		"max":[1.0,
		1.0,
		1.0]
	},
	{
		"bufferView":1,
		"type":"VEC2",
		"componentType":5126,
		"count":9940,
		"byteOffset":24,
		"min":[-0.273259699344635,
		-0.0024323933757841589],
		"max":[1.2820355892181397,
		1.0050663948059083]
	}],
	"bufferViews":[{
		"buffer":0,
		"byteOffset":0,
		"target":34963,
		"byteLength":99456
	},
	{
		"buffer":0,
		"byteOffset":99456,
		"target":34962,
		"byteLength":318080,
		"byteStride":32
	}],
	"buffers":[{
		"uri":"data:application/octet-stream;base64,",
		"byteLength":417536
	}],
	"materials":[{
		"pbrMetallicRoughness":{
			"baseColorFactor":[1.0,
			0.85,
			0.9874999999999999,
			1.0],
			"metallicFactor":0.0,
			"roughnessFactor":0.5
		},
		"emissiveFactor":[0.0,
		0.0,
		0.0],
		"alphaMode":"OPAQUE",
		"name":"Mat",
		"doubleSided":false
	}]
}